# xmcd CD database file
# Copyright (C) 1993-1998 Ti Kan
#
# Track frame offsets:
#  150
#  10682
#  21487
#  35207
#  42082
#  53790
#  65425
#  77255
#  85352
#  96620
#  106980
#  114937
#  127132
#  143180
#  154607
#  168650
#  176122
#  186737
#  203107
#  212672
#  224672
#  232457
#  244802
#
# Disc length: 3506 seconds
#
# Revision: 1
# Processed by: cddbd v1.4b41PL1 Copyright (c) Steve Scherf et al.
# Submitted via: CDWizzard Release:4.32
#
DISCID=5e0db017
DTITLE=High Noon - Glory Bound
DYEAR=1900
DGENRE=
TTITLE0=Train of Misery
TTITLE1=Midnight Shift
TTITLE2=Rockin' Wildcat
TTITLE3=Glory Bound
TTITLE4=Too Much Trouble
TTITLE5=Baby Let's Play House
TTITLE6=Hold Me Baby
TTITLE7=All Night Long
TTITLE8=Late Train
TTITLE9=Mona Lisa
TTITLE10=Your New Flame
TTITLE11=Who Was That Cat?
TTITLE12=Crazy Fever
TTITLE13=Don't Have A Heart Left To Break
TTITLE14=Rocks Me Right
TTITLE15=Feelin' No Pain
TTITLE16=Branded Outlaw
TTITLE17=Hannah Lee
TTITLE18=Don't Have A Heart Left To Break
TTITLE19=The Beaumont Boogie
TTITLE20=Ain't It Wrong
TTITLE21=Havin' A Whole Lotta Fun
TTITLE22=Crazy Fever
EXTD=
EXTT0=
EXTT1=
EXTT2=
EXTT3=
EXTT4=
EXTT5=
EXTT6=
EXTT7=
EXTT8=
EXTT9=
EXTT10=
EXTT11=
EXTT12=
EXTT13=
EXTT14=
EXTT15=
EXTT16=
EXTT17=
EXTT18=
EXTT19=
EXTT20=
EXTT21=
EXTT22=
PLAYORDER=
